<svg xmlns="http://www.w3.org/2000/svg" xmlns:xlink="http://www.w3.org/1999/xlink" width="168" height="59" viewBox="0 0 168 59">
    <defs>
        <path id="a" d="M.27.343h6.114v6.005H.27z"/>
        <path id="c" d="M0 59h167.83V.105H0z"/>
    </defs>
    <g fill="none" fill-rule="evenodd">
        <path fill="#FEFEFE" d="M0 14l13.158 33h2.046L24 26.097h-2.484L14.21 43.975 2.572 14zM47.338 27H45v21h14v-2.19H47.338zM64 48h2V27h-2zM73.319 38.49h11.213v-2.16H73.32v-7.17h12.534V27H71v21h15v-2.16H73.319zM104.79 43.83L92.124 27H90v21h2.211V30.78L105.191 48H107V27h-2.21zM112 29.19h6.836V48h2.328V29.19H128V27h-16zM135.319 45.84v-7.35h11.213v-2.16H135.32v-7.17h12.534V27H133v21h15v-2.16zM29.409 27L20 48h2.389l8.081-18.26L38.493 48H41l-9.409-21z"/>
        <g>
            <path fill="#FEFEFE" d="M36.472 57.822c-.986 0-1.668-.83-1.668-1.824v-.017c0-.995.698-1.808 1.668-1.808.576 0 1.028.249 1.471.655l.806-.937c-.535-.531-1.184-.896-2.269-.896-1.767 0-3 1.352-3 3.003v.016c0 1.667 1.258 2.986 2.951 2.986 1.11 0 1.767-.398 2.36-1.037l-.807-.82c-.452.414-.854.68-1.512.68"/>
            <g transform="translate(46.996 52.652)">
                <mask id="b" fill="#fff">
                    <use xlink:href="#a"/>
                </mask>
                <path fill="#FEFEFE" d="M5.06 3.362c0 .996-.706 1.808-1.725 1.808-1.02 0-1.743-.829-1.743-1.824v-.017c0-.995.707-1.808 1.727-1.808 1.019 0 1.742.829 1.742 1.825v.016zM3.336.343C1.559.343.269 1.695.269 3.346v.016c0 1.65 1.274 2.986 3.05 2.986 1.775 0 3.065-1.352 3.065-3.002v-.017c0-1.65-1.274-2.986-3.05-2.986z" mask="url(#b)"/>
            </g>
            <path fill="#FEFEFE" d="M63.794 56.47l.764-1.882.764 1.882h-1.528zm.197-3.416L61.525 58.9h1.29l.526-1.303h2.434l.526 1.303h1.323l-2.466-5.847H63.99zM78.761 57.822c-.986 0-1.668-.83-1.668-1.824v-.017c0-.995.698-1.808 1.668-1.808.576 0 1.027.249 1.472.655l.805-.937c-.535-.531-1.184-.896-2.269-.896-1.767 0-3 1.352-3 3.003v.016C75.77 57.68 77.027 59 78.72 59c1.11 0 1.767-.398 2.36-1.037l-.807-.82c-.452.414-.854.68-1.512.68M93.573 55.392h-2.334v-2.298h-1.266v5.807h1.266v-2.332h2.334v2.332h1.266v-5.807h-1.266z"/>
            <mask id="d" fill="#fff">
                <use xlink:href="#c"/>
            </mask>
            <path fill="#FEFEFE" d="M104.16 58.9h1.266v-5.806h-1.266zM118.61 56.67l-2.695-3.576h-1.167v5.807h1.25V55.21l2.786 3.69h1.076v-5.806h-1.25zM131.852 56.661h1.274v.83c-.32.232-.73.348-1.191.348-1.02 0-1.743-.78-1.743-1.841v-.017c0-.987.732-1.808 1.653-1.808.665 0 1.06.216 1.504.589l.797-.971c-.6-.514-1.225-.796-2.261-.796-1.743 0-3.016 1.352-3.016 3.003v.016c0 1.717 1.233 2.986 3.025 2.986a3.715 3.715 0 0 0 2.457-.92v-2.522h-2.499v1.103zM59.533 15.05c0 2.312-1.94 3.706-5.054 3.706h-6.905v-7.324h6.493c3.585 0 5.466 1.305 5.466 3.558v.06zM47.573 2.21h6.26c2.938 0 4.554 1.334 4.554 3.38v.06c0 2.432-1.939 3.706-4.73 3.706h-6.083V2.21zm14.31 12.929c0-2.847-1.968-4.27-4.407-5.012 1.616-.712 3.262-2.105 3.262-4.804v-.059c0-1.334-.47-2.431-1.322-3.32C58.24.786 56.389.103 54.038.103h-8.756v20.757h9.138c4.496 0 7.464-2.105 7.464-5.663v-.06zM66.423 20.861h2.32V.105h-2.32zM116.08.105h-2.263V16.74L100.858.105h-2.174v20.757h2.262V3.842l13.282 17.02h1.852zM130.99 19.409c-4.524 0-7.962-3.766-7.962-8.57v-.06c0-4.773 3.408-8.51 7.963-8.51 2.792 0 4.73 1.187 6.464 2.847l1.587-1.72c-2.057-1.957-4.29-3.291-8.022-3.291-6.053 0-10.402 4.863-10.402 10.734v.06c0 5.96 4.379 10.674 10.314 10.674 3.732 0 6.083-1.453 8.228-3.648l-1.528-1.511c-1.969 1.898-3.82 2.995-6.641 2.995M94.204 21.01L84.83.105h-2.174L73.283 21.01h2.38l8.051-18.177 7.993 18.177zM154.6.105h-2.057l-8.844 20.904h2.497l7.346-17.88 11.703 29.98h2.586z" mask="url(#d)"/>
        </g>
    </g>
</svg>
